<svg width="14" height="18" viewBox="0 0 14 18" fill="none" xmlns="http://www.w3.org/2000/svg">
<path d="M7.00008 12.9584C3.44175 12.9584 0.541748 10.0584 0.541748 6.50002C0.541748 2.94169 3.44175 0.041687 7.00008 0.041687C10.5584 0.041687 13.4584 2.94169 13.4584 6.50002C13.4584 10.0584 10.5584 12.9584 7.00008 12.9584ZM7.00008 1.29169C4.12508 1.29169 1.79175 3.62502 1.79175 6.50002C1.79175 9.37502 4.12508 11.7084 7.00008 11.7084C9.87508 11.7084 12.2084 9.37502 12.2084 6.50002C12.2084 3.62502 9.87508 1.29169 7.00008 1.29169Z" fill="#8F95AB"/>
<path d="M7 17.9584C6.65833 17.9584 6.375 17.675 6.375 17.3334V12.3334C6.375 11.9917 6.65833 11.7084 7 11.7084C7.34167 11.7084 7.625 11.9917 7.625 12.3334V17.3334C7.625 17.675 7.34167 17.9584 7 17.9584Z" fill="#8F95AB"/>
<path d="M9.5 15.4584H4.5C4.15833 15.4584 3.875 15.175 3.875 14.8334C3.875 14.4917 4.15833 14.2084 4.5 14.2084H9.5C9.84167 14.2084 10.125 14.4917 10.125 14.8334C10.125 15.175 9.84167 15.4584 9.5 15.4584Z" fill="#8F95AB"/>
</svg>
